<?xml version="1.0" encoding="UTF-8" standalone="no"?>
<svg
   viewBox="0 0 1254 1254"
   version="1.1"
   id="svg1"
   sodipodi:docname="haszcze-logo-supported-A.svg"
   inkscape:version="1.4.2 (f4327f4, 2025-05-13)"
   xmlns:inkscape="http://www.inkscape.org/namespaces/inkscape"
   xmlns:sodipodi="http://sodipodi.sourceforge.net/DTD/sodipodi-0.dtd"
   xmlns="http://www.w3.org/2000/svg"
   xmlns:svg="http://www.w3.org/2000/svg">
  <defs
     id="defs1" />
  <sodipodi:namedview
     id="namedview1"
     pagecolor="#ffffff"
     bordercolor="#000000"
     borderopacity="0.25"
     inkscape:showpageshadow="2"
     inkscape:pageopacity="0.0"
     inkscape:pagecheckerboard="0"
     inkscape:deskcolor="#d1d1d1"
     inkscape:zoom="0.6851154"
     inkscape:cx="-244.48436"
     inkscape:cy="511.59265"
     inkscape:window-width="5050"
     inkscape:window-height="1417"
     inkscape:window-x="-8"
     inkscape:window-y="-8"
     inkscape:window-maximized="1"
     inkscape:current-layer="svg1" />
  <path
     fill="#1a1a1a"
     fill-rule="evenodd"
     d="m 429.83,1122.98 c -4.28,-0.72 -9.47,-2.52 -13.96,-4.83 -8.12,-4.18 -11.38,-8.38 -10.3,-13.23 0.81,-3.63 4.76,-6.92 8.29,-6.92 1.59,0 3.82,1.26 7.11,4 4.93,4.1 11.43,6.27 17.53,5.86 7.66,-0.52 12.5,-4.05 12.5,-9.12 0,-2.17 -0.61,-3.44 -2.68,-5.65 -2.16,-2.3 -4.9,-3.43 -11.72,-4.88 -11.59,-2.44 -15.51,-3.83 -20.66,-7.28 -3.39,-2.27 -5.18,-4.31 -6.7,-7.66 -1.89,-4.16 -2.24,-5.73 -2.24,-10.01 0,-8.24 3.33,-14.6 9.89,-18.88 6.45,-4.22 11.11,-5.51 19.86,-5.51 8.74,0.01 14.87,1.57 22.75,5.79 3.52,1.89 4.24,2.54 5.27,4.69 1.31,2.77 0.63,6.71 -1.59,9.17 -2.02,2.23 -4.49,3.21 -6.8,2.7 -0.89,-0.19 -3.19,-1.3 -5.12,-2.47 -6.15,-3.7 -9.35,-4.75 -14.51,-4.75 -6.04,0 -9.86,1.79 -11.75,5.51 -1.26,2.46 -1.26,3.65 0.02,6.29 1.4,2.87 3.63,3.93 12.58,5.95 11.09,2.5 19.39,5.94 23.56,9.76 7.16,6.54 8.59,18.71 3.39,28.89 -1.06,2.07 -5.35,6.31 -8.1,7.99 -6.43,3.93 -18.32,5.98 -26.62,4.59 z m 132.67,0.04 c -6.04,-1.13 -12.12,-4.58 -16.5,-9.34 -3.37,-3.66 -5.11,-6.78 -6.48,-11.68 -4.05,-14.43 0.46,-28.59 11.44,-35.95 5.96,-3.99 8.88,-4.78 17.54,-4.79 7.98,-0.01 11.1,0.88 17.1,4.85 3.79,2.52 5.4,4.67 5.4,7.24 0,3.85 -3.85,7.65 -7.75,7.65 -1.62,0 -2.62,-0.39 -4.3,-1.67 -4.67,-3.56 -8.5,-4.67 -13.05,-3.77 -7.4,1.46 -11.88,7.53 -11.89,16.16 -0.02,5.93 2.27,10.98 6.39,14.12 2.53,1.93 4.88,2.66 8.6,2.65 3.15,0 7.12,-1.62 9.83,-3.99 2.01,-1.77 3.53,-2.22 6.26,-1.85 3.61,0.48 6.76,4.7 6.27,8.4 -0.14,1.05 -0.74,2.58 -1.33,3.4 -1.57,2.22 -8.11,6.38 -11.8,7.52 -3.67,1.13 -12.26,1.71 -15.73,1.05 z m 122.58,-0.03 c -1.74,-0.24 -4.26,-0.8 -5.59,-1.24 -2.92,-0.97 -8.02,-4.16 -10.66,-6.67 -4,-3.79 -7.07,-9.54 -8.35,-15.58 -0.85,-4.01 -0.4,-16.09 0.7,-19.14 2.59,-7.13 8,-13.22 14.5,-16.33 5.42,-2.59 8.52,-3.2 14.86,-2.92 8.06,0.36 12.84,2.32 18.01,7.39 5.09,4.98 7.71,10.81 8.29,18.36 0.24,3.26 0.13,4.58 -0.57,6.4 -1.54,4.05 -0.97,3.94 -21.72,3.97 l -18.3,0.02 -0.15,1.09 c -0.4,2.76 3.92,7.82 8.32,9.76 2.75,1.21 8.33,1.43 11.23,0.45 1.05,-0.35 3.4,-1.52 5.24,-2.6 1.84,-1.07 3.91,-1.95 4.6,-1.94 2.21,0.01 5.17,2.08 6.46,4.52 1.57,2.97 1.19,5.3 -1.25,7.67 -2.15,2.09 -7.51,4.95 -11.2,5.98 -3.53,0.98 -10.37,1.36 -14.42,0.81 z m 67.67,0.19 c -9.95,-1.53 -17.8,-7.41 -22.29,-16.68 -2.37,-4.9 -3.13,-8.53 -3.11,-15 0.02,-4.94 0.22,-6.34 1.42,-9.93 1.35,-4.04 3.88,-8.48 6.31,-11.08 2.38,-2.55 6.4,-5.54 9.16,-6.8 4.16,-1.9 7.9,-2.65 13.36,-2.67 8.19,-0.03 15.38,2.52 20.02,7.08 2.28,2.26 2.38,2.47 2.38,5.17 0,1.68 -0.32,3.37 -0.79,4.16 -2.04,3.46 -7.29,4.81 -10.23,2.63 -3.64,-2.69 -5.22,-3.56 -7.89,-4.35 -2.42,-0.71 -3.28,-0.75 -5.84,-0.24 -5.36,1.08 -8.48,3.62 -10.89,8.91 -0.88,1.91 -1.08,3.29 -1.07,7.12 0.02,3.76 0.27,5.37 1.19,7.72 2.34,5.96 8.68,10.23 14.24,9.59 2.6,-0.3 6.87,-2.14 8.54,-3.68 2.2,-2.03 3.52,-2.63 5.78,-2.63 4.44,0 7.71,3.64 7.31,8.16 -0.12,1.33 -0.65,3.02 -1.18,3.75 -1.62,2.22 -8.13,6.28 -12.06,7.52 -3.59,1.13 -10.97,1.78 -14.36,1.25 z m -263.82,-0.68 c -6.42,-0.22 -7.47,-0.37 -8.43,-1.25 -1.68,-1.52 -2.5,-3.47 -2.5,-5.92 0,-2.78 1.07,-4.43 9.79,-15.06 3.55,-4.33 7.84,-9.64 9.52,-11.8 1.69,-2.16 4.56,-5.71 6.38,-7.9 1.82,-2.18 3.31,-4.1 3.31,-4.27 0,-0.16 -5.19,-0.3 -11.52,-0.3 -12.8,0 -13.78,-0.2 -15.3,-3.13 -1.81,-3.49 -0.59,-7.94 2.72,-9.89 1.57,-0.93 2.71,-0.98 22.08,-0.98 h 20.41 l 1.51,1.41 c 0.85,0.79 1.77,2.36 2.09,3.56 1.1,4.09 0.49,5.4 -6.41,13.69 -3.47,4.17 -7.32,8.83 -8.55,10.34 -1.23,1.51 -4.78,5.84 -7.89,9.61 -3.1,3.77 -5.64,6.97 -5.64,7.12 0,0.15 5.22,0.27 11.59,0.27 10.53,0 11.78,0.09 13.64,0.99 1.12,0.54 2.43,1.65 2.91,2.45 1.18,2 1.12,5.88 -0.12,7.91 -1.76,2.89 -2.39,3 -18.02,3.21 -7.84,0.1 -17.55,0.08 -21.57,-0.06 z m 307.59,-0.62 c -1.36,-0.7 -2.55,-1.79 -3.12,-2.88 -0.86,-1.64 -0.91,-3.31 -0.78,-27.59 l 0.13,-25.84 1.5,-1.58 c 1.63,-1.7 4.21,-2.99 6,-2.99 1.66,0 4.35,1.25 5.56,2.58 2.41,2.65 2.37,2.14 2.25,28.92 -0.11,25.08 -0.12,25.26 -1.21,26.88 -1.26,1.87 -4.47,3.62 -6.65,3.62 -0.82,0 -2.48,-0.51 -3.68,-1.12 z m 30.48,0.59 c -1.82,-0.77 -3.49,-2.48 -4.29,-4.41 -0.96,-2.27 -0.97,-30.57 -0.02,-35.88 1.67,-9.3 8.5,-17.05 17.31,-19.64 1.24,-0.36 2.9,-0.86 3.7,-1.1 0.8,-0.24 3.73,-0.44 6.51,-0.44 5.67,0 10.9,1.18 14.91,3.36 3.48,1.9 8.12,6.98 9.97,10.92 2.61,5.58 2.87,7.88 2.89,25.28 0.02,17.39 -0.09,18.18 -2.98,20.61 -3.81,3.21 -9.67,1.89 -12.01,-2.69 -0.93,-1.81 -0.99,-2.99 -0.99,-17.92 0,-14.74 -0.07,-16.14 -0.97,-18.14 -1.17,-2.6 -2.21,-3.87 -4.47,-5.42 -2.32,-1.59 -8.12,-1.99 -11.31,-0.78 -2.69,1.03 -5.83,4.42 -6.66,7.18 -0.4,1.32 -0.59,6.99 -0.59,17.29 0,14.56 -0.05,15.43 -1.06,17.57 -0.58,1.24 -1.73,2.74 -2.56,3.33 -1.72,1.22 -5.49,1.67 -7.38,0.88 z m -222.64,-0.86 c -1.57,-0.97 -3.38,-4.31 -3.32,-6.14 0.1,-3.18 0.98,-4.46 15.71,-22.8 10.61,-13.21 12.7,-15.89 12.72,-16.29 0.02,-0.21 -5.04,-0.38 -11.24,-0.38 -9.21,0 -11.56,-0.14 -12.78,-0.77 -3.07,-1.59 -4.36,-6.01 -2.7,-9.23 0.41,-0.8 1.5,-2.02 2.42,-2.72 l 1.67,-1.28 h 20.54 20.54 l 1.53,1.53 c 3.25,3.25 3.09,8.56 -0.4,12.58 -1.02,1.18 -4.13,4.95 -6.91,8.39 -2.78,3.44 -8.11,10.02 -11.84,14.63 -3.74,4.62 -6.8,8.5 -6.8,8.63 0,0.13 5.12,0.24 11.38,0.24 9.83,0 11.61,0.12 13.11,0.88 3.74,1.87 5.02,6.19 3.01,10.13 -1.81,3.54 -1.48,3.49 -24.6,3.48 -18.66,-0.02 -20.78,-0.1 -22.04,-0.88 z m 96.94,-36.31 c 0.48,-1.25 -1.86,-5.73 -4.05,-7.75 -2.43,-2.24 -4.75,-3.04 -8.78,-3.05 -3.32,0 -7.26,1.76 -9.29,4.16 -1.68,2 -3.35,5.69 -2.99,6.63 0.23,0.59 2.38,0.71 12.56,0.71 10.08,0 12.33,-0.13 12.55,-0.7 z m 94.71,-31.7 c -2.12,-1.17 -4.01,-4.55 -4.01,-7.18 0,-2.69 1.68,-5.96 3.75,-7.3 1.31,-0.84 2.47,-1.12 4.75,-1.12 3.58,0 5.9,1.26 7.48,4.07 2.11,3.75 1.02,8.42 -2.61,11.11 -2,1.48 -7.03,1.71 -9.36,0.42 z m -57.28,-23.78 c -0.84,-0.38 -2.14,-1.41 -2.88,-2.29 l -1.35,-1.61 0.01,-28.58 v -28.59 l 1.41,-4.03 c 2.66,-7.66 7.27,-12.9 14.33,-16.3 9.45,-4.55 19.54,-4.49 29.17,0.17 4.66,2.26 9.71,7.41 12.39,12.66 2.95,5.77 3.44,8 3.42,15.5 -0.01,5.39 -0.21,7.09 -1.16,9.96 -1.49,4.52 -2.49,6.42 -5.2,9.92 -3.52,4.52 -7.5,7.44 -12.87,9.42 -2.8,1.03 -4.12,1.19 -9.5,1.18 -5.28,-0.02 -6.69,-0.19 -9.08,-1.14 -1.56,-0.62 -3.67,-1.79 -4.69,-2.61 -1.03,-0.81 -2.05,-1.48 -2.27,-1.48 -0.22,0 -0.42,5.2 -0.44,11.55 -0.05,12.7 -0.2,13.44 -3.09,15.5 -1.94,1.38 -6.02,1.77 -8.2,0.77 z M 386,1007.32 c -7.9,-1.41 -13.09,-6.1 -15.52,-14.01 -0.35,-1.14 -0.51,-3.64 -0.38,-6.07 0.18,-3.38 0.51,-4.75 1.83,-7.42 2.66,-5.41 7.71,-9.02 14.47,-10.34 4.7,-0.92 12.94,-0.36 17.58,1.2 2.05,0.69 3.93,1.12 4.18,0.97 0.64,-0.39 -0.01,-5.42 -0.92,-7.18 -1.15,-2.2 -3.23,-3.89 -5.94,-4.79 -3.54,-1.17 -9.49,-0.7 -14.05,1.11 -2.16,0.86 -4.49,1.41 -6.09,1.43 -2.21,0.03 -2.82,-0.19 -4.12,-1.43 -2.79,-2.67 -3.23,-6.71 -1.08,-9.74 2.36,-3.31 11.31,-5.71 21.29,-5.72 5.69,0 7,0.17 10.5,1.32 2.2,0.73 5.13,2.09 6.52,3.03 2.8,1.89 6.25,6.07 7.53,9.1 1.97,4.65 2.16,6.97 2.18,25.42 l 0.02,17.96 -1.28,1.67 c -1.63,2.14 -3.64,3.17 -6.22,3.17 -2.85,0 -4.74,-1.13 -6.26,-3.73 l -1.3,-2.22 -2.24,1.71 c -3.28,2.51 -6.58,3.87 -11.42,4.72 -3.57,0.63 -5.04,0.6 -9.28,-0.16 z m 74.5,-0.04 c -6.55,-1.18 -10.73,-3.25 -14.98,-7.42 -4.36,-4.26 -7.21,-8.84 -9.08,-14.61 -0.89,-2.72 -0.9,-14.84 -0.02,-17.5 0.37,-1.1 1.1,-2.95 1.62,-4.12 0.53,-1.17 0.96,-2.25 0.96,-2.4 0,-0.16 0.87,-1.57 1.94,-3.13 4.12,-6.06 10.28,-10.32 17.62,-12.18 3.46,-0.87 5.07,-1 9.19,-0.76 6.06,0.35 10.26,1.65 14.79,4.58 4.36,2.82 5.71,4.73 5.71,8.1 0,1.84 -0.3,2.99 -1.05,4 -1.7,2.3 -4.11,3.66 -6.47,3.66 -1.75,0 -2.67,-0.4 -5.1,-2.23 -3.85,-2.89 -5.15,-3.36 -9.39,-3.37 -4.42,-0.01 -7.32,1.26 -10.43,4.59 -2.51,2.68 -3.44,4.57 -4.31,8.77 -0.46,2.21 -0.46,3.58 0.02,6.17 0.81,4.34 2.06,6.94 4.54,9.45 3.02,3.05 5.97,4.3 10.19,4.3 3.99,-0.01 5.91,-0.7 9.46,-3.42 3.86,-2.95 8.05,-2.91 10.91,0.13 3.03,3.21 2.68,7.56 -0.87,10.86 -5.88,5.46 -16.27,8.15 -25.25,6.53 z m 126.25,0.17 c -6.85,-0.92 -12.6,-3.81 -17,-8.55 -5.74,-6.18 -7.92,-12.37 -7.97,-22.65 -0.03,-7.17 0.54,-10.31 2.75,-15 1.86,-3.95 6.12,-9.04 9.53,-11.39 6.16,-4.24 15.59,-5.93 23.06,-4.12 4.32,1.05 9.35,3.5 12.16,5.92 5.08,4.39 9.19,13.21 9.59,20.59 0.26,4.8 -0.6,7.29 -3.01,8.76 -1.52,0.93 -2.6,0.99 -19.71,0.99 -11.38,0 -18.2,0.18 -18.4,0.49 -0.48,0.78 1.47,4.69 3.4,6.84 2.4,2.65 5.76,4.24 9.64,4.55 4.03,0.32 7.04,-0.47 11.24,-2.94 3.93,-2.32 6.54,-2.55 9.22,-0.82 2.32,1.51 3.43,3.91 3.11,6.75 -0.19,1.71 -0.68,2.67 -2.15,4.17 -4.75,4.86 -15.96,7.69 -25.46,6.41 z M 693,1007.23 c -3.1,-0.62 -4.56,-1 -8.51,-2.18 -2.85,-0.86 -7.12,-3.67 -8.35,-5.5 -3.11,-4.63 0.27,-10.74 5.95,-10.74 2.03,0 2.89,0.33 5.35,2.07 3.79,2.67 8.11,4.12 12.27,4.12 3.6,0 5.37,-0.58 7.41,-2.44 1.02,-0.92 1.38,-1.72 1.38,-3.06 0,-1.33 -0.37,-2.16 -1.38,-3.11 -1.53,-1.44 -3.47,-2.17 -11.12,-4.14 -10,-2.59 -15.36,-6.08 -17.87,-11.67 -1.03,-2.31 -1.27,-3.6 -1.27,-7.08 0,-3.47 0.24,-4.77 1.27,-7.08 2.35,-5.23 7.59,-9.04 14.74,-10.73 4.9,-1.15 12.57,-0.71 18.13,1.06 8.05,2.56 10.5,4.59 10.5,8.73 0,4.06 -2.64,7.02 -6.27,7.02 -1.43,0 -3.42,-0.62 -6.05,-1.88 -3.43,-1.63 -4.47,-1.89 -8.18,-2.02 -3.33,-0.12 -4.63,0.05 -5.99,0.75 -3.58,1.85 -3.89,5.26 -0.69,7.42 0.85,0.57 4.84,1.99 8.87,3.14 4.02,1.16 8.55,2.57 10.06,3.13 3.68,1.38 7.79,5.18 9.24,8.54 0.97,2.27 1.09,3.25 0.91,7.64 -0.17,4.2 -0.42,5.44 -1.51,7.53 -1.31,2.52 -3.87,5.25 -6.64,7.09 -2.33,1.55 -5.63,2.69 -10,3.45 -4.76,0.84 -7.86,0.83 -12.25,-0.06 z m 128.25,0.04 c -5.37,-1.12 -7.62,-2.22 -10.55,-5.15 -8.49,-8.49 -7.3,-22.87 2.41,-29.15 4.57,-2.95 8.41,-3.97 14.99,-3.97 4.79,0 6.09,0.2 9.98,1.5 2.46,0.83 4.58,1.5 4.7,1.5 0.12,0 0.22,-1.21 0.22,-2.69 0,-6.85 -4.23,-10.31 -12.58,-10.31 -3.31,0 -4.74,0.29 -8.64,1.75 -2.57,0.96 -5.34,1.75 -6.15,1.75 -3.11,0 -6.55,-3.74 -6.61,-7.18 -0.03,-2.32 1.86,-5.1 4.42,-6.47 6.62,-3.55 20.36,-4.7 28.49,-2.4 7.93,2.25 12.39,6.56 15.44,14.9 0.78,2.14 0.88,4.56 0.88,21.98 v 19.59 l -1.25,1.34 c -1.84,1.96 -3.65,2.74 -6.39,2.74 -2.07,0 -2.74,-0.27 -4.52,-1.79 -1.15,-0.98 -2.09,-2.22 -2.09,-2.75 0,-1.11 -0.64,-1.24 -1.59,-0.32 -2.48,2.41 -7.51,4.58 -12.41,5.34 -3.95,0.62 -4.91,0.6 -8.75,-0.21 z m 72.38,-0.02 c -8.69,-1.57 -16.32,-7.49 -20.57,-15.96 -2.51,-4.98 -3.22,-8.31 -3.22,-15.04 -0.01,-6.42 0.83,-10.16 3.43,-15.29 3.13,-6.18 9.82,-11.85 16.83,-14.26 9.3,-3.2 21.05,-1.47 28.79,4.25 3,2.21 4.11,4.23 4.11,7.48 0,2.44 -0.17,2.86 -1.89,4.58 -2.23,2.23 -5.31,3.27 -7.36,2.49 -0.74,-0.28 -2.3,-1.29 -3.46,-2.25 -2.97,-2.43 -5.55,-3.4 -9.04,-3.42 -6.25,-0.02 -11.46,3.15 -14.07,8.56 -1.21,2.49 -1.39,3.48 -1.41,7.61 -0.01,2.61 0.28,5.78 0.65,7.05 0.96,3.29 3.86,6.83 7.08,8.65 2.46,1.38 3.18,1.55 6.75,1.53 4.47,-0.03 7.32,-1.02 10.28,-3.58 2.4,-2.08 4.47,-2.71 6.8,-2.06 3.7,1.02 6.8,5.83 5.95,9.24 -0.49,1.94 -4.45,5.65 -7.78,7.27 -7.49,3.65 -13.98,4.58 -21.87,3.15 z m 61.87,-0.05 c -10.79,-2.32 -19.36,-10.87 -22.27,-22.2 -1.18,-4.61 -0.81,-15.42 0.69,-20.04 2.21,-6.81 8.02,-13.64 14.17,-16.67 14.57,-7.17 31.89,-1.85 38.67,11.89 2.29,4.63 3.43,10.76 2.77,14.86 -0.58,3.64 -1.18,4.76 -3.19,5.98 -1.5,0.92 -2.65,0.98 -19.48,0.98 -14.93,0 -17.94,0.12 -18.16,0.7 -0.5,1.29 2.29,6.24 4.6,8.18 5.65,4.75 13.05,4.78 20.3,0.09 2.3,-1.48 3.56,-1.97 5.1,-1.97 2.52,0.01 4.61,1.31 6.14,3.85 2.21,3.65 1.09,6.86 -3.45,9.87 -6.67,4.43 -17.45,6.3 -25.89,4.48 z m -411.76,-0.22 c -1.63,-0.48 -3.73,-2.51 -7.55,-7.27 -7.92,-9.86 -12.88,-15.71 -13.32,-15.71 -0.28,0 -1.94,1.26 -3.69,2.79 l -3.18,2.79 v 5.99 c 0,6.6 -0.39,7.91 -3.02,10.12 -1.31,1.1 -2.05,1.31 -4.6,1.31 -2.51,0 -3.33,-0.23 -4.76,-1.32 -3.23,-2.46 -3.12,-0.99 -3.12,-40.8 0,-34.24 0.05,-36.24 0.93,-37.89 1.94,-3.65 7.77,-5.18 11.33,-2.98 3.22,1.99 3.24,2.15 3.24,24.94 0,15.33 0.15,20.55 0.58,20.55 0.32,0 5.67,-5.15 11.88,-11.44 9.34,-9.47 11.65,-11.56 13.37,-12.07 3.63,-1.08 7.7,0.44 9.7,3.63 0.76,1.21 0.97,2.19 0.8,3.82 -0.21,2.08 -0.68,2.65 -9.07,11.05 l -8.85,8.86 3.57,4.2 c 4.33,5.1 12.71,15.36 14.77,18.07 1.2,1.58 1.49,2.46 1.47,4.35 -0.04,2.69 -1.46,5.12 -3.63,6.23 -1.87,0.95 -5.06,1.32 -6.85,0.78 z m 92.62,0.13 c -2.64,-0.24 -5.18,-2.84 -5.62,-5.73 -0.17,-1.18 -0.24,-10.25 -0.14,-20.14 0.18,-17.48 0.22,-18.07 1.36,-20.99 3.61,-9.2 10.68,-14.4 20.54,-15.09 6.38,-0.45 14.16,2.05 16.46,5.28 1.42,1.99 1.44,6.64 0.04,8.94 -1.2,1.98 -3.76,3.62 -5.64,3.62 -0.76,0 -2.73,-0.67 -4.36,-1.5 -1.69,-0.85 -3.76,-1.5 -4.8,-1.5 -3.41,0 -6.52,2.94 -7.49,7.06 -0.21,0.93 -0.41,9.11 -0.43,18.19 -0.03,15.58 -0.09,16.59 -1.03,18.16 -1.72,2.86 -4.7,4.1 -8.89,3.7 z M 294.62,1006 c -0.9,-0.54 -2.08,-1.72 -2.63,-2.62 -0.98,-1.6 -0.99,-2.4 -0.87,-37.97 0.13,-35.79 0.15,-36.36 1.16,-37.75 0.57,-0.77 2.03,-1.93 3.25,-2.57 4.24,-2.21 9.1,-0.62 11.02,3.61 0.83,1.83 0.93,3.46 0.94,15.12 0.01,10.56 0.14,13.12 0.69,13.33 0.55,0.22 15.02,0.16 29.62,-0.1 l 2.56,-0.05 0.25,-13.4 c 0.21,-10.92 0.41,-13.68 1.06,-14.94 2.57,-4.98 9.14,-6.08 13.27,-2.22 0.81,0.76 1.72,2.3 2.03,3.44 0.38,1.43 0.51,12.62 0.41,37 l -0.13,34.95 -1.4,1.83 c -1.91,2.51 -3.74,3.34 -7.32,3.34 -2.87,0 -3.12,-0.1 -5.22,-2.12 l -2.2,-2.13 -0.37,-7.85 c -0.2,-4.32 -0.24,-10.7 -0.08,-14.18 0.15,-3.47 0.15,-6.63 0,-7.02 -0.22,-0.58 -3.07,-0.7 -16.71,-0.7 H 307.5 v 13.84 c 0,12.98 -0.06,13.98 -1.04,15.98 -1.42,2.94 -3.57,4.18 -7.27,4.18 -2.05,0 -3.43,-0.3 -4.57,-1 z m 107.34,-11.54 c 4.14,-1.83 6.26,-4.53 6.74,-8.55 0.32,-2.8 -0.28,-3.46 -4.48,-4.95 -2.02,-0.72 -4.34,-1.08 -7.22,-1.13 -3.63,-0.07 -4.61,0.1 -6.72,1.17 -1.36,0.69 -2.89,1.82 -3.39,2.51 -2.23,3.08 -1.36,8.24 1.74,10.35 3.4,2.31 8.91,2.55 13.33,0.6 z m 432.88,0.61 c 3.25,-1.12 5.69,-2.78 7.08,-4.81 0.79,-1.15 1.08,-2.32 1.08,-4.4 0,-2.41 -0.17,-2.95 -1.16,-3.59 -1.59,-1.05 -5.54,-2.19 -8.89,-2.57 -5.64,-0.63 -11.15,2.16 -12.38,6.28 -2.05,6.83 5.98,11.96 14.27,9.09 z m -63.53,-3.55 c 5.46,-3.13 8.18,-7.52 8.59,-13.86 0.18,-2.87 -0.01,-4.38 -0.89,-7.13 -0.93,-2.9 -1.58,-3.92 -3.82,-6.04 -3.87,-3.66 -6.42,-4.66 -11.15,-4.38 -4.52,0.27 -7.04,1.41 -9.76,4.42 -3.19,3.54 -4.03,5.97 -4.03,11.72 0,4.43 0.16,5.35 1.42,8.06 1.56,3.39 4.03,6.04 7.08,7.61 1.52,0.79 2.96,1.04 6,1.05 3.53,0.02 4.3,-0.15 6.56,-1.45 z M 602.84,968.71 c -0.4,-2.46 -2.52,-5.91 -4.6,-7.5 -2.06,-1.57 -4.9,-2.66 -7.02,-2.69 -4.86,-0.07 -10.77,3.84 -12.44,8.22 -1.48,3.89 -1.9,3.76 12.02,3.76 h 12.33 z m 371.8,1.15 c 0.13,-0.34 -0.19,-1.8 -0.73,-3.22 -1.3,-3.51 -4.96,-6.81 -8.46,-7.65 -4.78,-1.15 -9.94,0.47 -13.29,4.18 -1.98,2.19 -3.7,5.64 -3.31,6.66 0.37,0.96 25.42,0.99 25.79,0.03 z M 326,883.53 l -4.24,-0.28 -5.17,-6.5 c -7.44,-9.36 -22.39,-27.81 -32.82,-40.5 -11.74,-14.28 -16.54,-20.13 -20.52,-25.02 -2.2,-2.71 -6.81,-8.32 -10.25,-12.49 -9.63,-11.67 -14.42,-17.52 -19.02,-23.24 -2.31,-2.89 -6.47,-7.96 -9.22,-11.27 -2.76,-3.32 -7.37,-8.93 -10.26,-12.47 -5.78,-7.1 -7.08,-8.67 -15.93,-19.26 -3.34,-3.99 -6.07,-7.52 -6.07,-7.85 0,-1.11 0.8,-1.09 5.28,0.08 14.59,3.81 34.73,9.1 42.77,11.23 5.11,1.36 14.11,3.71 20,5.23 5.88,1.51 14.64,3.79 19.45,5.07 19.41,5.13 22.04,5.78 22.44,5.52 0.24,-0.14 0.02,-1.78 -0.47,-3.64 -6.16,-23.23 -9.23,-34.07 -9.9,-34.95 -0.45,-0.59 -5.33,-6.1 -10.83,-12.25 -5.51,-6.16 -12.74,-14.34 -16.07,-18.19 -3.33,-3.85 -11.62,-13.41 -18.42,-21.25 -6.8,-7.84 -12.85,-14.81 -13.43,-15.5 -0.59,-0.69 -3.64,-4.17 -6.76,-7.75 -7.62,-8.71 -7.9,-9.02 -11.06,-12.75 -1.51,-1.79 -3.45,-4.03 -4.31,-5 -3.55,-4 -15.81,-18.1 -19,-21.85 -11.3,-13.29 -13.19,-15.61 -13.19,-16.1 0,-0.3 0.06,-0.55 0.12,-0.55 0.19,0.01 11.18,1.51 14.63,2.01 1.65,0.23 4.69,0.66 6.75,0.94 3.52,0.49 5.54,0.76 15.12,2.03 2.14,0.29 5.62,0.75 7.76,1.04 3.69,0.5 7.6,1 15.37,1.99 3.36,0.42 8.47,1.09 21.13,2.77 8.23,1.09 14.29,1.71 14.51,1.49 0.25,-0.24 -1.09,-6.95 -2.95,-14.77 -2.32,-9.74 -9.94,-41.07 -11.47,-47.16 -0.54,-2.15 -0.85,-4.13 -0.69,-4.39 0.34,-0.54 3.02,1.62 10.95,8.82 3.03,2.76 7.44,6.69 9.79,8.75 17.25,15.08 21.19,18.54 24.68,21.68 2.18,1.95 7.04,6.14 10.82,9.3 6.38,5.34 15.06,12.65 17.11,14.41 0.48,0.41 0.99,0.63 1.14,0.49 0.14,-0.14 -1.87,-4.62 -4.47,-9.96 -2.6,-5.33 -9.27,-19.14 -14.84,-30.69 -13.71,-28.48 -16.92,-35.1 -23.46,-48.5 -13.78,-28.22 -15.77,-32.32 -24.68,-50.87 -1.76,-3.65 -5.61,-11.58 -8.56,-17.63 -8.73,-17.85 -14,-28.74 -16.01,-33 -1.03,-2.2 -2.53,-5.33 -3.32,-6.96 -0.78,-1.63 -1.43,-3.35 -1.43,-3.83 0,-1.75 1.59,-1.51 4.41,0.66 9.41,7.21 18.24,14.15 32.34,25.4 7.43,5.92 16.99,13.47 21.25,16.78 4.26,3.31 11.05,8.59 15.08,11.73 4.03,3.15 9.66,7.51 12.5,9.71 2.84,2.19 9.67,7.49 15.17,11.77 5.5,4.28 11.46,8.92 13.25,10.3 1.79,1.39 8.43,6.56 14.75,11.49 6.32,4.94 13.3,10.33 15.5,12 3.64,2.74 15.04,11.46 31.83,24.34 3.48,2.68 6.43,4.86 6.55,4.86 0.25,0 0.65,-6.6 1.39,-22.75 0.27,-6.05 0.7,-15.05 0.94,-20 0.88,-17.64 2.01,-42.71 2.53,-56.25 0.3,-7.56 0.75,-17.01 1,-21 0.71,-11.06 1.46,-26.33 2.01,-41 0.84,-22.17 1.54,-37.6 2.33,-51.5 0.41,-7.29 0.95,-19.1 1.19,-26.25 0.24,-7.15 0.68,-17.84 0.97,-23.75 0.3,-5.91 0.75,-15.36 1.01,-21 0.25,-5.64 0.8,-17.45 1.21,-26.25 1.25,-26.97 1.49,-36.25 0.92,-36.25 -0.62,0 -12.43,3.82 -13.88,4.49 -0.55,0.25 -11.24,3.86 -23.75,8 -12.51,4.15 -23.2,7.76 -23.75,8.01 -0.55,0.26 -10.56,3.64 -22.25,7.51 -11.69,3.88 -23.05,7.68 -25.25,8.45 -2.2,0.78 -5.13,1.76 -6.5,2.19 -2.6,0.81 -16.21,5.54 -24,8.33 -2.48,0.89 -5.06,1.77 -5.75,1.96 -0.8,0.23 -1.57,1.06 -2.15,2.33 -2.27,5.01 -2.63,5.48 -5.6,7.27 -2.89,1.74 -3,1.89 -3.11,4.01 -0.1,2.13 -0.01,2.27 2.91,4.62 3.47,2.78 4.65,4.48 5.78,8.33 0.69,2.33 0.72,3.31 0.23,6.47 -0.7,4.52 -2.11,7.06 -5.78,10.41 -8.69,7.95 -23.74,5.2 -29.27,-5.35 -0.92,-1.73 -1.97,-6.43 -1.99,-8.84 -0.03,-2.76 1.48,-4.69 3.66,-4.69 2.83,0 6.14,3.04 6.64,6.09 0.45,2.8 1.84,4.66 4.42,5.9 2.98,1.45 5.67,1.16 8.19,-0.88 2.44,-1.97 3.4,-4.52 2.66,-7.02 -0.63,-2.08 -1.24,-2.83 -5.06,-6.08 -2.86,-2.45 -4.03,-4.26 -4.03,-6.24 0,-0.71 0.56,-2.9 1.25,-4.87 0.69,-1.96 1.25,-3.73 1.25,-3.92 0,-0.19 -0.68,-1.19 -1.5,-2.23 -1.38,-1.74 -1.5,-2.2 -1.5,-5.82 0,-3.88 1.23,-13.04 1.9,-14.23 0.35,-0.6 5.73,-4.96 12.42,-10.06 1.89,-1.44 6.47,-4.99 10.18,-7.88 3.71,-2.9 9.43,-7.35 12.71,-9.89 9.23,-7.15 21.56,-16.87 39.04,-30.81 18.54,-14.78 21.28,-16.94 35.75,-28.32 5.91,-4.64 12.77,-10.04 15.25,-11.99 15.64,-12.35 21.83272,-18.01432 24.47355,-18.01846 1.85285,-0.003 11.96257,5.36533 38.02645,14.49846 21.27,7.46 45.38,15.8 56.75,19.63 2.89,0.97 5.44,1.95 5.68,2.16 0.24,0.22 1.39,3.73 2.56,7.81 2.42,8.47 5.62,18.97 11.27,36.92 9.65,30.7 19.26,61.52 25.49,81.75 2.5,8.11 5.76,18.57 7.25,23.25 1.49,4.68 3.59,11.43 4.68,15 1.08,3.57 2.91,9.43 4.07,13 2.26,6.98 3.84,12.09 4.48,14.5 0.23,0.82 1.35,4.43 2.51,8 1.16,3.57 2.66,8.3 3.35,10.5 0.68,2.2 2.78,8.84 4.67,14.75 3.53,11.07 5.64,17.97 7.48,24.5 0.59,2.06 1.26,4.31 1.5,5 0.25,0.69 1.15,3.61 2.01,6.5 0.86,2.89 1.76,5.81 2,6.5 0.24,0.69 1.04,3.27 1.78,5.75 0.74,2.48 1.54,4.71 1.77,4.96 0.25,0.27 0.84,-0.07 1.44,-0.83 0.56,-0.72 4.39,-5.15 8.5,-9.85 4.11,-4.71 9.05,-10.41 10.96,-12.67 4.13,-4.88 9.69,-11.27 19.51,-22.42 6.98,-7.93 9.54,-10.87 14.12,-16.23 1.19,-1.4 6.22,-7.14 11.17,-12.76 4.95,-5.61 11.91,-13.58 15.47,-17.7 3.56,-4.13 7.49,-8.63 8.75,-10.01 1.25,-1.39 7.23,-8.23 13.28,-15.22 6.05,-6.99 14.24,-16.43 18.2,-20.99 7.96,-9.15 10.86,-12.49 15.61,-17.96 1.75,-2.03 4.43,-5.11 5.94,-6.85 1.51,-1.74 6.23,-7.17 10.48,-12.07 4.26,-4.89 13.93,-15.95 21.5,-24.57 7.58,-8.63 14.78,-16.87 16.02,-18.33 1.24,-1.46 4.27,-4.95 6.75,-7.74 2.48,-2.8 5.74,-6.5 7.25,-8.22 6.56,-7.46 19.03,-21.18 20.69,-22.76 1.33,-1.27 1.96,-1.58 2.37,-1.17 0.59,0.59 -0.15,3.34 -4.06,15.14 -1.04,3.16 -2.4,7.44 -3.02,9.5 -1.36,4.6 -3.89,12.39 -4.45,13.75 -0.22,0.55 -0.92,2.69 -1.54,4.75 -0.63,2.06 -1.75,5.66 -2.5,8 -3.46,10.85 -7.83,24.4 -10,31 -1.3,3.99 -3.55,10.96 -4.98,15.5 -1.44,4.54 -3.69,11.51 -5,15.5 -1.31,3.99 -4.68,14.34 -7.48,23 -2.81,8.66 -5.3,16.31 -5.53,17 -0.24,0.69 -2.26,6.99 -4.51,14 -4.73,14.79 -7.54,23.47 -18.14,56 -4.26,13.06 -9.25,28.48 -11.09,34.25 -4.86,15.28 -13.07,40.71 -15.01,46.5 -0.92,2.75 -1.58,5.08 -1.48,5.19 0.1,0.1 2.05,-1.06 4.33,-2.57 3.75,-2.49 8.7,-5.68 25.65,-16.52 5.96,-3.81 15.23,-9.79 29.75,-19.2 16,-10.37 34.44,-22.28 48.25,-31.17 3.3,-2.12 8.26,-5.33 11.03,-7.13 2.76,-1.8 10.64,-6.85 17.5,-11.23 6.86,-4.37 16.41,-10.5 21.22,-13.62 10.19,-6.59 20.58,-13.26 28,-17.99 2.89,-1.84 8.29,-5.29 12,-7.67 18.71,-11.97 18.63,-11.93 19.39,-11.16 0.62,0.61 0.41,1.83 -1.58,9.14 -1.27,4.64 -3.41,12.59 -4.77,17.68 -2.41,9.03 -5.26,19.3 -10.52,38 -2.45,8.7 -5.26,19.04 -10.28,37.75 -1.18,4.4 -2.03,8.11 -1.89,8.25 0.14,0.14 1.04,-0.65 2.01,-1.75 2.02,-2.3 16.9,-20.88 36.65,-45.75 7.53,-9.49 19.34,-24.34 26.24,-33 6.9,-8.66 16.01,-20.14 20.25,-25.5 4.23,-5.36 8.73,-10.99 10.01,-12.5 2.45,-2.91 11.27,-13.6 18.76,-22.72 14.37,-17.52 27.81,-33.26 35.57,-41.64 0.76,-0.83 1.89,-0.82 2.59,0.02 0.4,0.49 0.22,1.55 -0.73,4.13 -0.71,1.9 -1.7,4.7 -2.21,6.21 -0.51,1.51 -1.85,5.34 -2.99,8.5 -1.14,3.16 -2.48,6.99 -2.98,8.5 -0.97,2.91 -2.32,6.58 -3.05,8.25 -0.24,0.55 -1.21,3.36 -2.17,6.25 -1.98,5.98 -4.17,12.28 -4.79,13.75 -0.23,0.55 -0.91,2.35 -1.51,4 -0.6,1.65 -1.28,3.45 -1.51,4 -0.49,1.16 -2.72,7.48 -3.8,10.75 -0.41,1.24 -0.98,2.81 -1.28,3.5 -0.81,1.85 -1,2.37 -4.41,11.75 -2.44,6.71 -3.12,8.56 -3.5,9.5 -0.22,0.55 -1.12,2.91 -2,5.25 -0.88,2.34 -1.78,4.7 -2,5.25 -0.22,0.55 -1.35,3.48 -2.5,6.5 -1.15,3.02 -2.28,5.95 -2.5,6.5 -0.22,0.55 -1.3,3.36 -2.4,6.25 -2.2,5.78 -7.95,20.67 -8.6,22.25 -0.22,0.55 -1.98,5.05 -3.9,10 -1.93,4.95 -4.11,10.57 -4.86,12.5 -0.75,1.93 -1.99,5.23 -2.76,7.34 -0.77,2.11 -1.73,4.58 -2.13,5.5 -0.41,0.91 -1.91,4.7 -3.35,8.41 -1.44,3.71 -2.9,7.43 -3.27,8.25 -1.13,2.6 -2.76,6.86 -4.21,11 -0.77,2.2 -3.25,8.61 -5.52,14.25 -2.27,5.64 -4.63,11.6 -5.25,13.25 -1.54,4.1 -6.11,16.08 -9.25,24.25 -4.63,12.05 -8.08,21.59 -7.87,21.79 0.11,0.11 3.33,-1.52 7.16,-3.61 19.01,-10.42 22.9,-12.57 34.96,-19.28 20.54,-11.44 31.35,-17.32 61.31,-33.34 4.19,-2.25 4.89,-2.48 5.43,-1.82 0.65,0.78 0.61,0.86 -5.34,10.17 -0.94,1.46 -2.11,3.37 -2.61,4.25 -0.5,0.87 -2.54,4.16 -4.52,7.3 -1.99,3.14 -5.13,8.21 -6.99,11.25 -1.86,3.05 -4.58,7.45 -6.04,9.79 -1.46,2.34 -4.17,6.73 -6.01,9.75 -1.84,3.02 -4.54,7.41 -5.98,9.75 -1.45,2.34 -3.02,4.92 -3.5,5.75 -0.48,0.83 -2.05,3.41 -3.5,5.75 -1.44,2.34 -4.17,6.78 -6.06,9.88 -1.89,3.09 -5.06,8.26 -7.03,11.5 -3.99,6.5 -20.02,33.01 -21.4,35.37 -0.48,0.83 -1.72,2.96 -2.76,4.75 -1.03,1.79 -2.49,4.26 -3.25,5.5 -4.91,8.08 -8.56,14.61 -8.3,14.87 0.17,0.16 0.81,0.06 1.43,-0.24 0.61,-0.29 3.37,-1.15 6.12,-1.91 2.75,-0.76 6.58,-1.81 8.5,-2.34 1.92,-0.53 4.17,-1.15 5,-1.38 3.36,-0.92 8.7,-2.47 12,-3.49 3.78,-1.17 15.98,-4.8 18.63,-5.55 0.89,-0.25 2.35,-0.66 3.24,-0.91 0.9,-0.25 3.54,-1.05 5.88,-1.79 4.86,-1.52 9.84,-3.02 12.75,-3.82 1.1,-0.31 2.56,-0.74 3.25,-0.97 0.69,-0.22 3.61,-1.11 6.5,-1.97 2.89,-0.86 5.81,-1.76 6.5,-2 0.69,-0.24 3.61,-1.14 6.5,-2 2.89,-0.86 5.81,-1.75 6.5,-1.97 0.69,-0.23 2.15,-0.66 3.25,-0.97 1.1,-0.31 4.46,-1.34 7.47,-2.31 3.02,-0.96 5.66,-1.57 5.88,-1.35 0.33,0.33 -1.64,5.72 -3.59,9.85 -0.96,2.03 -6.51,14.79 -6.51,14.97 0,0.1 -0.9,2.11 -2,4.47 -1.1,2.36 -2,4.38 -2,4.5 0,0.12 -0.91,2.2 -2.03,4.64 -1.12,2.43 -2.33,5.09 -2.7,5.92 -3.06,6.91 -3.89,8.74 -6.71,14.89 -0.86,1.86 -1.56,3.49 -1.56,3.61 0,0.12 -0.54,1.41 -1.19,2.86 -0.66,1.45 -1.65,3.65 -2.2,4.89 -0.55,1.24 -1.47,3.32 -2.05,4.62 -0.58,1.31 -1.51,3.39 -2.06,4.63 -0.55,1.24 -1.45,3.26 -2,4.5 -0.55,1.24 -1.48,3.32 -2.06,4.63 -0.58,1.3 -1.59,3.56 -2.25,5.01 -0.65,1.45 -1.19,2.74 -1.19,2.86 0,0.12 -0.67,1.7 -1.5,3.5 -0.83,1.8 -1.5,3.38 -1.5,3.51 0,0.13 -0.81,1.98 -1.8,4.11 -0.98,2.14 -2.7,6.02 -3.81,8.63 -1.11,2.61 -2.55,5.94 -3.2,7.39 -0.66,1.45 -1.19,2.74 -1.19,2.86 0,0.12 -0.54,1.41 -1.19,2.86 -2.8,6.18 -3.31,7.35 -4.31,9.89 -4.5578,11.55179 -2.9551,7.43977 -4.9164,12.86086 40.8233,-6.60233 41.6248,-6.66591 73.6866,-12.6788 0.5111,-0.0958 -3.4002,3.69794 -9.0802,9.81794 -1.41,1.51 -4.87,5.34 -7.7,8.5 -2.84,3.16 -6.41,7.1 -7.95,8.75 -1.54,1.65 -6.28,6.92 -10.54,11.71 -4.26,4.8 -9.01,10.08 -10.56,11.75 -1.54,1.67 -6.58,7.31 -11.2,12.54 -8.33,9.42 -19.61,22.09 -28.74,32.28 -2.61,2.91 -7.11,7.96 -10,11.2 -2.89,3.25 -5.48,6.16 -5.75,6.47 -0.27,0.31 -2.41,2.69 -4.75,5.3 -2.34,2.61 -4.48,4.99 -4.75,5.29 -0.27,0.3 -3.31,3.74 -6.74,7.63 L 987.27,884 658.76,883.91 C 478.08,883.86 328.34,883.69 326,883.53 Z m 188.92,-20.46 c 1.79,-1.25 12.32,-7.64 25.83,-15.67 3.02,-1.79 7.52,-4.5 10,-6.01 2.48,-1.51 6.19,-3.73 8.25,-4.93 8.04,-4.68 17.95,-10.59 21.75,-12.96 1.65,-1.03 4.35,-2.66 6,-3.63 1.65,-0.96 7.16,-4.27 12.25,-7.37 5.09,-3.09 9.92,-6.01 10.75,-6.5 7.31,-4.28 8,-4.83 9.25,-7.32 0.69,-1.38 1.68,-3.5 2.2,-4.72 0.95,-2.22 2.81,-6.28 6.03,-13.15 0.95,-2.03 2.42,-5.2 3.27,-7.06 0.85,-1.86 2.3,-4.98 3.22,-6.94 0.92,-1.96 2.25,-4.85 2.97,-6.43 0.71,-1.58 2.06,-4.51 3,-6.5 0.94,-2 2.16,-4.64 2.71,-5.88 0.56,-1.24 1.79,-3.94 2.74,-6 0.95,-2.06 2.34,-5.1 3.1,-6.75 3.3,-7.24 8.34,-17.95 9.35,-19.89 0.38,-0.74 -0.87,-2.26 -7.17,-8.75 -9.63,-9.92 -17.97,-18.59 -23.42,-24.36 -6.14,-6.49 -22.45,-23.66 -28.02,-29.5 -8.07,-8.46 -20.72,-21.91 -22.27,-23.67 -0.8,-0.92 -1.46,-1.87 -1.46,-2.1 0,-0.62 48.4,-49.86 49.07,-49.93 0.65,-0.06 1.36,6.6 2.17,20.2 0.29,4.95 0.74,12.04 1.01,15.75 0.26,3.71 0.62,8.83 0.79,11.38 0.17,2.54 0.49,4.62 0.71,4.62 0.21,0 0.76,-1.18 1.22,-2.62 0.71,-2.25 2.94,-8.31 4.28,-11.63 0.38,-0.95 1.28,-3.4 3.45,-9.37 0.53,-1.45 1.79,-4.77 2.81,-7.38 1.02,-2.61 2.25,-5.99 2.74,-7.5 0.49,-1.51 1.5,-4.33 2.24,-6.25 3.26,-8.42 7.65,-20.04 9.26,-24.5 0.5,-1.37 1.51,-4.08 2.26,-6 0.74,-1.92 1.75,-4.74 2.24,-6.25 0.49,-1.51 1.5,-4.33 2.24,-6.25 0.75,-1.92 2.01,-5.24 2.81,-7.37 0.8,-2.14 2.15,-5.74 3,-8 0.85,-2.27 1.96,-5.26 2.46,-6.63 0.51,-1.37 2.04,-5.54 3.41,-9.25 1.38,-3.71 2.84,-7.77 3.25,-9.01 0.41,-1.24 1.76,-4.84 3,-8 1.25,-3.16 3.84,-10.01 5.77,-15.24 8.24,-22.3 13.16,-35.45 15.78,-42.2 1.54,-3.95 2.69,-7.31 2.55,-7.45 -0.26,-0.26 -2.43,1.69 -11.28,10.12 -2.61,2.49 -6.89,6.55 -9.5,9.01 -6.48,6.12 -27.05,26.41 -84.74,83.58 -26.95,26.7 -54.95,54.42 -62.22,61.59 l -13.23,13.04 0.1,2.16 c 0.1,2.17 0.76,9.01 2.59,27.07 0.56,5.45 1.01,10.35 1.01,10.88 0,0.6 5.75,6.69 15.18,16.08 8.35,8.32 27.06,27.09 41.57,41.72 l 26.39,26.61 -8.74,11.64 c -4.81,6.41 -12.4,16.6 -16.88,22.65 -4.48,6.05 -8.93,12.01 -9.89,13.25 -0.96,1.24 -3.11,4.11 -4.78,6.38 -1.67,2.26 -3.29,4.12 -3.6,4.12 -0.3,0 -1.04,-1.97 -1.63,-4.38 -2.18,-8.84 -10.77,-43.21 -13.58,-54.37 -1.6,-6.33 -4.32,-17.35 -6.03,-24.5 -1.72,-7.15 -3.33,-13.82 -3.57,-14.81 -0.43,-1.77 -0.88,-2.06 -16.54,-10.75 -8.86,-4.92 -17.46,-9.69 -19.13,-10.6 -1.66,-0.92 -4.71,-2.63 -6.77,-3.8 -3.97,-2.27 -5.64,-3.21 -15.12,-8.47 -1.17,-0.65 -2.92,-1.62 -3.88,-2.16 -0.96,-0.55 -3.55,-1.97 -5.75,-3.16 -2.2,-1.2 -5.13,-2.84 -6.5,-3.66 -3.58,-2.12 -4.95,-2.88 -10,-5.58 -2.48,-1.32 -5.24,-2.84 -6.15,-3.39 -0.91,-0.54 -1.79,-0.85 -1.95,-0.69 -0.16,0.17 -0.02,2.05 0.31,4.18 0.33,2.14 0.81,5.3 1.07,7.02 0.26,1.71 0.7,4.58 0.97,6.37 0.91,5.89 1.43,9.45 2,13.5 0.31,2.2 0.77,5.41 1.03,7.13 0.26,1.71 0.68,4.53 0.94,6.24 0.26,1.72 0.71,4.82 1,6.88 0.86,6.02 3.06,21.01 3.53,24 0.24,1.51 1.87915,14.65034 2.64206,15.25765 0.83715,0.66641 10.4499,0.72117 29.22868,1.27647 1.69751,0.01 1.18893,1.65604 0.45478,-30.56279 11.81564,5.62147 9.65571,4.37861 20.89277,10.39008 5.33466,15.72712 5.32481,15.27965 10.81035,33.23773 C 524.1278,742.92374 460.95,753.19 456.44,754.57 c -4.5,1.38 -8.46,2.77 -8.8,3.09 -0.46,0.46 -0.49,3.11 -0.12,11.59 0.73,16.67 2.2,43.67 3,54.77 0.26,3.72 0.48,8.74 0.48,11.16 0,3.12 0.17,4.35 0.58,4.21 0.64,-0.21 2.82,-4.34 17.05,-32.39 10.44,-20.59 14.83,-29.13 15.12,-29.41 0.16,-0.17 5.4,-1.43 10.5,-2.54 6.73,-1.46 23.62,-5.24 27,-6.04 7.71,-1.83 9.21,-2.1 9.77,-1.75 0.32,0.2 1.2,1.74 1.96,3.42 0.76,1.69 4.31,9.37 7.88,17.07 3.58,7.7 7.22,15.55 8.09,17.45 l 1.59,3.45 -1.34,2.05 c -0.74,1.13 -3.52,5.2 -6.18,9.05 -2.67,3.85 -7.96,11.5 -11.77,17 -3.81,5.5 -8.95,12.92 -11.42,16.5 -2.47,3.58 -5.13,7.33 -5.91,8.35 -0.78,1.01 -1.42,1.97 -1.42,2.12 0,0.56 1.13,0.26 2.42,-0.65 z m 440.82,-19.78 c 4.4,-3.73 6.19,-5.28 8.99,-7.81 1.39,-1.26 3.31,-2.92 4.27,-3.7 2.25,-1.81 7.52,-6.39 10.74,-9.31 1.38,-1.25 4.99,-4.4 8.01,-7 4.78,-4.1 9.23,-7.97 25.25,-21.97 1.79,-1.56 7.84,-6.87 13.45,-11.79 5.61,-4.93 10.84,-9.48 11.63,-10.12 2.93,-2.39 2.56,-2.41 -10.83,-0.56 -3.85,0.53 -8.8,1.2 -11,1.49 -2.2,0.29 -5.35,0.73 -7,0.97 -6.14,0.9 -10.11,1.47 -14.25,2.03 -2.34,0.32 -5.26,0.77 -6.5,1 -1.24,0.23 -2.44,0.23 -2.68,-0.01 -0.24,-0.23 -0.18,-2.26 0.14,-4.59 0.32,-2.29 1.01,-7.54 1.54,-11.67 1.62,-12.69 2.06,-15.48 2.49,-15.92 0.22,-0.24 5.98,-1.86 12.8,-3.61 6.82,-1.74 12.57,-3.47 12.77,-3.82 0.21,-0.36 3.31,-5.04 6.89,-10.4 5.9,-8.84 6.4,-9.77 5.4,-9.94 -0.6,-0.1 -5.26,0.07 -10.35,0.38 -17.84,1.1 -23.05,1.31 -23.42,0.94 -0.33,-0.33 2.09,-17.82 3.47,-25.16 l 0.48,-2.52 9.61,-3.06 c 5.29,-1.68 11.86,-3.74 14.61,-4.57 14.47,-4.37 13.75,-4.08 14.96,-6.02 0.62,-0.99 2.71,-4.28 4.64,-7.3 1.94,-3.02 5.72,-8.99 8.41,-13.25 2.7,-4.26 6.55,-10.23 8.58,-13.25 3.03,-4.53 3.52,-5.53 2.77,-5.65 -0.5,-0.08 -5.06,1.22 -10.13,2.88 -10.41,3.4 -19.36,6.28 -26.73,8.57 -2.75,0.86 -8.94,2.85 -13.75,4.44 -4.81,1.59 -13.81,4.51 -20,6.5 -13.92,4.47 -22.84,7.4 -24.57,8.07 -1.46,0.57 -1.36,-0.06 -2.42,14.94 -0.56,8.01 -1.63,20.85 -3.76,45.25 -2.84,32.45 -5.81,70.36 -7.23,92.25 -1.78,27.4 -1.75,26.7 -0.97,26.24 0.38,-0.23 2.05,-1.55 3.69,-2.95 z m -613.96,-0.66 c 0.77,-1.58 5.65,-11.54 10.85,-22.13 l 9.45,-19.25 -0.53,-5.5 c -0.29,-3.02 -0.76,-8.31 -1.05,-11.75 -0.28,-3.44 -0.61,-7.38 -0.74,-8.75 -0.66,-7.18 -2.76,-30.94 -2.99,-33.82 -0.19,-2.32 -0.08,-3.46 0.36,-3.8 0.57,-0.45 10.31,-2.99 21.62,-5.63 2.48,-0.58 6.83,-1.62 9.67,-2.32 2.85,-0.71 5.36,-1.09 5.58,-0.86 0.23,0.24 0.66,3.02 0.97,6.18 0.53,5.48 0.79,7.73 2,17.5 0.29,2.34 0.74,6.16 1,8.5 0.26,2.34 0.72,6.05 1.03,8.25 0.3,2.2 0.75,5.8 1,8 0.25,2.2 0.69,5.69 0.97,7.75 0.29,2.06 0.76,6.11 1.06,9 0.41,3.97 0.81,5.63 1.63,6.81 0.6,0.86 4.8,6.19 9.34,11.84 13.21,16.48 18.7,23.42 19.49,24.67 0.41,0.65 0.95,1.18 1.2,1.18 0.28,0 0.32,-2.58 0.12,-6.38 -0.18,-3.5 -0.55,-12.78 -0.82,-20.62 -0.26,-7.84 -0.71,-20.21 -0.99,-27.5 -0.29,-7.29 -0.74,-19.44 -1,-27 -0.27,-7.56 -0.72,-18.59 -1,-24.5 -0.29,-5.91 -0.75,-15.36 -1.02,-21 -1.01,-21 -1.51,-30.48 -2.04,-39 -0.3,-4.81 -0.7,-25.77 -0.87,-46.57 l -0.32,-37.82 -24.67,-24.85 c -13.57,-13.66 -24.78,-24.72 -24.92,-24.59 -0.26,0.26 1.4,21.72 2.81,36.33 0.28,2.89 0.73,7.61 1,10.5 0.28,2.89 0.74,7.61 1.03,10.5 0.52,5.17 1,10.19 1.97,20.5 0.27,2.89 0.73,7.5 1.03,10.25 0.56,5.29 1.2,11.62 2.04,20.25 1.29,13.35 2.24,22.6 2.97,29 1,8.89 1.45,15.24 1.1,15.54 -0.2,0.16 -3.73,0.69 -7.86,1.16 -4.13,0.47 -12.1,1.41 -17.72,2.09 -5.62,0.69 -10.51,1.13 -10.87,0.99 -0.39,-0.15 -0.66,-1.06 -0.66,-2.25 0,-1.11 -0.45,-6.12 -1,-11.14 -0.55,-5.03 -1.23,-11.39 -1.52,-14.14 -0.29,-2.75 -0.73,-6.91 -0.99,-9.25 -0.25,-2.34 -0.8,-8.08 -1.23,-12.75 -0.43,-4.67 -0.9,-9.45 -1.05,-10.61 -0.25,-2 -1.22,-3.05 -19.61,-21.25 -32.48,-32.12 -37.07,-36.59 -37.33,-36.33 -0.14,0.14 0.09,2.04 0.51,4.22 0.42,2.19 1.86,10.05 3.21,17.47 1.34,7.42 3.45,18.9 4.68,25.5 1.23,6.6 3.51,18.86 5.06,27.25 1.55,8.39 3.94,21.1 5.3,28.25 6.69,35.07 11.03,58.18 12.16,64.75 1.43,8.33 7.71,43.02 11.31,62.5 1.35,7.29 2.92,16.06 3.49,19.5 1.2,7.25 2.99,16.95 3.29,17.91 0.34,1.04 0.99,0.31 2.5,-2.78 z m 469.69,-9.75 c 5.12,-10.58 11.19,-22.78 12.42,-24.95 1.09,-1.92 7.32,-13.9 12.73,-24.48 l 3.22,-6.3 0.45,-5.95 c 0.46,-6.08 0.45,-25.36 -0.02,-26.57 -0.19,-0.49 -2.21,0.36 -7.39,3.12 -3.92,2.09 -10.34,5.42 -14.27,7.4 -5.65,2.85 -7.23,3.46 -7.57,2.91 -0.58,-0.94 -5.94,-17.43 -12.45,-38.31 -1.37,-4.4 -3.41,-10.91 -4.54,-14.46 l -2.04,-6.46 1.93,-3.29 c 2.14,-3.64 12.65,-21.04 19.07,-31.54 2.26,-3.71 5.57,-9.17 7.34,-12.12 1.77,-2.96 3.4,-5.38 3.62,-5.38 0.36,0 12.58,24.25 14.8,29.38 0.51,1.16 1.07,2.12 1.24,2.12 0.18,0 0.94,-3.21 1.7,-7.12 0.76,-3.92 1.57,-7.92 1.8,-8.88 0.23,-0.96 0.68,-3.1 1,-4.75 0.31,-1.65 0.76,-3.9 0.99,-5 0.23,-1.1 0.67,-3.35 0.99,-5 0.31,-1.65 0.78,-4.01 1.04,-5.25 0.61,-2.81 1.98,-9.6 2.48,-12.25 0.2,-1.1 0.85,-4.25 1.43,-7 0.57,-2.75 1.39,-6.69 1.82,-8.75 0.42,-2.06 1.2,-5.55 1.73,-7.75 1.25,-5.19 2.64,-11.26 4,-17.5 0.61,-2.75 1.54,-6.91 2.08,-9.25 2.25,-9.74 4.45,-19.66 4.93,-22.25 1.01,-5.45 3.08,-15.35 4.45,-21.25 0.29,-1.24 1.11,-5.06 1.84,-8.5 1.95,-9.34 3.27,-15.54 3.71,-17.5 1.19,-5.31 4.69,-22.27 8.45,-40.9 1.68,-8.33 3.86,-18.74 4.84,-23.13 0.98,-4.39 1.7,-8.37 1.61,-8.85 -0.12,-0.56 -0.8,0.27 -1.95,2.38 -2.24,4.13 -3.14,5.71 -11.36,20 -3.71,6.46 -8.2,14.34 -9.98,17.5 -1.78,3.16 -4.19,7.32 -5.34,9.25 -1.16,1.93 -2.78,4.74 -3.61,6.25 -0.83,1.51 -2.03,3.65 -2.67,4.75 -0.63,1.1 -2.16,3.8 -3.38,6 -1.23,2.2 -3.52,6.25 -5.1,9 -1.58,2.75 -3.43,6.01 -4.12,7.25 -0.7,1.24 -2.4,4.22 -3.8,6.62 -1.4,2.4 -3.48,6.12 -4.64,8.25 -1.15,2.13 -2.52,4.48 -3.02,5.21 -0.51,0.73 -0.93,1.48 -0.93,1.67 0,0.19 -0.42,0.94 -0.92,1.67 -0.51,0.73 -1.78,2.91 -2.82,4.83 -1.04,1.92 -3.18,5.75 -4.75,8.5 -1.57,2.75 -3.72,6.69 -4.78,8.75 -1.05,2.06 -2.29,4.31 -2.75,5 -0.45,0.69 -1.68,2.83 -2.72,4.75 -3.82,7.06 -4.93,9.06 -6.52,11.75 -1.39,2.35 -3.63,6.36 -11.14,20 -0.69,1.24 -2.53,4.5 -4.1,7.25 -1.57,2.75 -3.71,6.69 -4.77,8.75 -1.05,2.06 -2.29,4.31 -2.75,5 -0.46,0.69 -1.92,3.27 -3.23,5.75 -1.32,2.48 -2.56,4.73 -2.76,5 -0.2,0.27 -1.09,1.85 -1.99,3.5 -2.72,4.98 -4.25,7.77 -7,12.75 -1.44,2.61 -3.3,5.99 -4.13,7.5 -0.84,1.51 -2.92,5.23 -4.63,8.25 -3.34,5.91 -11.03,19.75 -12.03,21.66 -0.67,1.29 -0.97,0.38 4.69,14.09 3.42,8.27 6.07,14.64 12.61,30.25 4.28,10.24 7.73,18.53 12.24,29.5 1.02,2.48 3.49,8.33 5.49,13 2,4.67 3.98,9.51 4.4,10.75 0.97,2.85 2.64,7.07 3.84,9.71 0.51,1.12 3.56,8.56 6.77,16.54 9.68,23.99 9.99,24.74 10.27,24.75 0.14,0 1.92,-3.43 3.95,-7.62 z M 633.08,818.73 c 2.02,-0.7 8.73,-2.96 14.92,-5.02 6.19,-2.06 11.7,-3.95 12.25,-4.21 0.55,-0.25 5.84,-2.05 11.75,-4 5.91,-1.95 11.2,-3.74 11.75,-4 1.08,-0.49 4.57,-1.64 28.75,-9.49 8.66,-2.82 16.99,-5.52 18.5,-6.02 1.51,-0.5 5.67,-1.83 9.25,-2.97 16.99,-5.39 22.53,-7.21 22.93,-7.56 0.24,-0.21 -0.69,-2.25 -2.07,-4.54 -1.38,-2.3 -4.03,-6.87 -5.89,-10.17 -1.86,-3.3 -4.5,-7.99 -5.86,-10.42 -1.37,-2.42 -2.78,-4.52 -3.12,-4.65 -0.35,-0.14 -4.43,0.8 -9.06,2.09 -26.94,7.48 -43.4,11.69 -43.87,11.23 -0.25,-0.25 0.68,-2.74 2.19,-5.84 1.45,-2.98 5.5,-11.49 9.01,-18.91 3.51,-7.42 8.79,-18.45 11.74,-24.5 2.94,-6.05 6.88,-14.26 8.74,-18.25 1.86,-3.99 7.72,-16.14 13.01,-27 5.29,-10.86 11.48,-23.58 13.74,-28.25 2.26,-4.67 8.21,-16.9 13.23,-27.16 5.03,-10.26 9.04,-18.75 8.93,-18.86 -0.24,-0.24 -4.6,1.31 -11.12,3.96 -2.46,0.99 -4.66,1.81 -4.88,1.81 -0.23,0 -1.36,0.43 -2.53,0.95 -1.17,0.52 -8.53,3.46 -16.37,6.54 -7.84,3.08 -14.7,5.78 -15.25,6.01 -0.55,0.22 -2.91,1.12 -5.25,2 -4.93,1.85 -6.42,2.45 -7.62,3.06 -0.48,0.24 -1.1,0.44 -1.38,0.44 -0.28,0 -1.58,0.48 -2.88,1.06 -4.07,1.82 -5.3,2.33 -7.62,3.2 -1.24,0.46 -2.81,1.07 -3.5,1.35 -0.69,0.29 -1.76,0.72 -2.38,0.96 -0.61,0.24 -1.63,0.63 -2.24,0.88 -0.62,0.25 -4.17,1.62 -7.88,3.05 -7.69,2.95 -8.11,3.12 -10.5,4.16 -0.96,0.41 -3.33,1.36 -5.25,2.09 -1.92,0.74 -6.99,2.73 -11.25,4.42 -8.84,3.52 -8.22,2.68 -7.1,9.58 1.36,8.41 1.64,10.21 2.14,13.75 0.29,2.06 0.75,5.21 1.02,7 0.27,1.79 0.62,4.34 0.78,5.67 0.16,1.33 0.58,2.52 0.93,2.66 0.58,0.22 3.78,-0.87 13.73,-4.68 1.79,-0.69 4.38,-1.65 5.75,-2.15 1.37,-0.5 4.86,-1.8 7.75,-2.91 2.89,-1.1 7.84,-2.93 11,-4.07 3.16,-1.14 6.81,-2.5 8.12,-3.02 1.3,-0.51 2.49,-0.73 2.64,-0.48 0.15,0.25 -3.02,7.15 -7.05,15.34 -14.57,29.58 -22.71,46.38 -22.71,46.87 0,0.08 -1.21,2.7 -2.69,5.83 -2.62,5.57 -3.98,8.51 -6.61,14.32 -0.72,1.58 -2.07,4.52 -3,6.54 -0.94,2.02 -1.7,3.75 -1.7,3.86 0,0.1 -0.59,1.49 -1.3,3.08 -3.65,8.09 -8.7,19.63 -8.7,19.89 0,0.12 -0.56,1.46 -1.25,2.99 -0.69,1.52 -1.81,4 -2.5,5.52 -0.69,1.53 -1.25,2.87 -1.25,2.99 0,0.12 -0.67,1.7 -1.5,3.5 -0.83,1.8 -1.5,3.39 -1.5,3.53 0,0.14 -0.76,1.87 -1.7,3.86 -2.49,5.31 -4.3,9.36 -4.3,9.62 0,0.13 -0.81,1.98 -1.8,4.11 -0.99,2.14 -2.15,4.78 -2.57,5.88 -0.43,1.1 -0.97,2.21 -1.21,2.48 -0.42,0.47 -0.6,2.27 -0.22,2.27 0.11,0 1.86,-0.57 3.88,-1.27 z m 210.69,-1.01 c 8.24,-1.76 12.38,-2.6 25.73,-5.25 1.51,-0.31 3.65,-0.74 4.75,-0.98 1.1,-0.24 4.59,-0.91 7.75,-1.5 3.16,-0.59 8,-1.51 10.75,-2.04 2.75,-0.53 6.35,-1.2 8,-1.49 1.65,-0.3 4.13,-0.75 5.5,-1.01 4.49,-0.86 7.45,-1.4 10.63,-1.93 5.18,-0.86 9.25,-1.57 11.62,-2.02 1.24,-0.23 3.71,-0.68 5.5,-1 1.79,-0.31 4.19,-0.78 5.35,-1.03 1.15,-0.26 2.72,-0.47 3.5,-0.48 0.77,0 1.72,-0.21 2.11,-0.45 0.8,-0.51 0.89,-0.2 -4.07,-15.54 -1.64,-5.09 -3.77,-11.95 -4.73,-15.25 -1.72,-5.92 -2.41,-7.46 -3.15,-7.01 -0.2,0.13 -4.62,1.15 -9.82,2.27 -5.19,1.12 -12.95,2.81 -17.24,3.76 -4.29,0.95 -7.97,1.73 -8.18,1.73 -0.87,0 0.68,-3.74 7.92,-19.17 1.27,-2.71 2.31,-4.99 2.31,-5.07 0,-0.36 15.56,-32.89 22.25,-46.51 4.05,-8.25 8.43,-17.25 9.75,-20 1.31,-2.75 7.7,-15.77 14.19,-28.93 6.5,-13.16 11.81,-24 11.81,-24.07 0,-0.08 2.5,-5.28 5.56,-11.57 6.67,-13.7 11.44,-23.71 11.44,-23.98 0,-0.38 -1.8,-0.2 -2.28,0.22 -0.26,0.23 -1.26,0.72 -2.22,1.09 -1.75,0.67 -4.6,1.9 -9.76,4.24 -1.53,0.69 -2.86,1.25 -2.97,1.25 -0.1,0 -2.59,1.12 -5.52,2.5 -2.93,1.38 -5.42,2.5 -5.54,2.5 -0.21,0 -1.26,0.45 -6.83,2.94 -1.3,0.58 -2.48,1.06 -2.61,1.06 -0.13,0 -1.48,0.56 -3.01,1.25 -1.52,0.69 -4,1.81 -5.52,2.5 -1.53,0.69 -2.87,1.25 -2.99,1.25 -0.12,0 -1.41,0.54 -2.86,1.19 -2.35,1.06 -7.32,3.22 -11.64,5.06 -0.83,0.35 -2.57,1.11 -3.87,1.69 -1.3,0.58 -2.48,1.06 -2.61,1.06 -0.13,0 -1.43,0.54 -2.88,1.19 -1.45,0.66 -3.77,1.7 -5.14,2.31 -1.37,0.61 -3.42,1.53 -4.54,2.03 -1.12,0.51 -3.24,1.39 -4.71,1.97 -2.54,1 -3.71,1.51 -9.89,4.31 -1.45,0.65 -2.74,1.19 -2.86,1.19 -0.12,0 -1.64,0.64 -3.36,1.41 -1.73,0.78 -4.49,1.95 -6.14,2.6 -1.65,0.65 -3.9,1.65 -5,2.22 l -2,1.04 0.18,17.74 c 0.1,9.76 0.27,17.83 0.38,17.95 0.1,0.11 0.7,-0.03 1.32,-0.33 1.92,-0.92 28.7,-11.38 38.12,-14.88 2.75,-1.03 5.29,-2.1 5.65,-2.39 0.45,-0.36 0.82,-0.34 1.23,0.07 0.61,0.61 -2.62,7.38 -12.66,26.57 -17.17,32.8 -21.35,40.95 -29.68,57.75 -4.5,9.08 -8.65,17.57 -9.23,18.87 -2.22,4.99 -2.99,6.74 -4.56,10.38 -0.89,2.06 -2.11,4.88 -2.72,6.25 -0.61,1.37 -1.39,3.29 -1.75,4.25 -0.36,0.96 -0.94,2.42 -1.3,3.25 -0.35,0.83 -1.81,4.42 -3.23,8 -1.42,3.58 -2.9,7.23 -3.29,8.13 -0.39,0.89 -1.03,2.35 -1.42,3.24 -0.39,0.9 -1.19,2.85 -1.78,4.34 -1.1,2.8 -2.59,6.22 -3.81,8.74 -0.38,0.8 -0.7,1.53 -0.7,1.63 0,0.3 0.7,0.19 6.77,-1.11 z M 475.05,554.88 c 2.04,-2.27 5.17,-5.81 6.96,-7.87 1.78,-2.06 5.55,-6.31 8.37,-9.45 2.81,-3.13 5.12,-5.87 5.12,-6.09 0,-0.57 -4.58,-3.23 -13.5,-7.85 -7.62,-3.94 -19.63,-10.29 -28,-14.8 -2.34,-1.26 -4.42,-2.3 -4.62,-2.31 -0.21,0 -0.38,4.21 -0.38,9.37 0.1033,9.77715 0.31749,29.01089 0.64853,29.99613 0.28755,1.2349 20.43147,13.03387 21.14147,13.08387 0.3,0.02 2.22,-1.82 4.26,-4.08 z m 37.2,-42.51 c 1.65,-1.99 5.76,-6.82 9.13,-10.75 3.36,-3.92 6.12,-7.49 6.12,-7.93 0,-0.74 -5.4,-21.24 -9.94,-37.69 -1.1,-3.99 -2.71,-10.11 -3.59,-13.61 -0.87,-3.5 -1.84,-6.7 -2.15,-7.11 -0.6,-0.8 0.22,-1.48 -16.86,14.13 -21.72,19.86 -40.46,37.53 -40.46,38.15 0,0.2 3.43,2.15 7.62,4.34 4.2,2.18 12.02,6.29 17.38,9.13 23.16,12.26 28.29,14.91 29,14.93 0.41,0.01 2.1,-1.6 3.75,-3.59 z m 36.25,-33.12 c 3.42,-3.97 16.63,-18.91 17.01,-19.25 0.15,-0.14 2.06,-2.27 4.23,-4.75 4.73,-5.37 9.29,-10.49 15.91,-17.84 2.69,-2.99 4.8,-5.6 4.68,-5.8 -0.11,-0.2 -0.94,-2.72 -1.82,-5.61 -0.89,-2.89 -2.7,-8.62 -4.03,-12.75 -1.32,-4.13 -3.09,-9.81 -3.94,-12.63 -3.46,-11.53 -4.73,-15.66 -6.63,-21.62 -1.09,-3.44 -2.18,-6.93 -2.41,-7.75 -0.23,-0.82 -1.09,-3.64 -1.91,-6.25 -0.82,-2.61 -2.89,-9.36 -4.6,-15 -1.7,-5.64 -5.01,-16.44 -7.35,-24 -2.33,-7.56 -5.13,-16.68 -6.21,-20.25 -1.08,-3.57 -3.29,-10.77 -4.9,-16 -1.62,-5.23 -4.1,-13.32 -5.52,-18 -1.42,-4.68 -3.57,-11.65 -4.77,-15.5 -1.21,-3.85 -3.66,-11.84 -5.45,-17.75 -1.79,-5.91 -4.96,-16.26 -7.03,-23 -2.07,-6.74 -6.72,-22.04 -10.32,-34 -3.6,-11.96 -6.72,-21.93 -6.93,-22.16 -0.21,-0.22 -5.98,1.44 -12.82,3.69 -28.03,9.25 -31.96,10.58 -32.34,10.94 -0.22,0.21 0.18,2.49 0.89,5.08 0.71,2.58 2.39,8.98 3.75,14.2 1.35,5.22 2.6,10.06 2.78,10.75 0.18,0.69 0.96,3.39 1.72,6 0.77,2.61 1.9,6.66 2.52,9 0.62,2.34 1.97,7.29 3,11 1.04,3.71 2.83,10.35 3.99,14.75 1.16,4.4 2.62,9.8 3.25,12 0.63,2.2 2.43,8.73 4,14.5 1.57,5.77 3.95,14.44 5.29,19.25 1.34,4.81 4.22,15.5 6.4,23.75 2.19,8.25 5.44,20.29 7.23,26.75 4.5,16.23 12.48,45.16 17.59,63.75 1.28,4.68 3.97,14.8 5.97,22.5 2.01,7.7 4.79,18.16 6.18,23.25 1.39,5.09 3.55,13.14 4.8,17.89 3.28,12.5 3.79,14.11 4.45,14.08 0.32,-0.02 1.83,-1.47 3.34,-3.22 z m -93.15,-8.88 c 12.27,-11.52 21.51,-20.14 26.66,-24.87 3.15,-2.89 8.99,-8.29 12.98,-12 3.99,-3.71 7.88,-7.23 8.63,-7.82 1.31,-1.02 1.89,-2.68 0.94,-2.68 -0.49,0 -10.81,-6.86 -19.56,-13 -3.16,-2.22 -8.34,-5.82 -11.5,-8 -3.16,-2.17 -8,-5.54 -10.75,-7.48 -10.62,-7.5 -10.76,-7.59 -10.98,-6.92 -0.11,0.36 -0.47,14.94 -0.79,32.4 -0.32,17.46 -0.7,36.87 -0.84,43.12 -0.18,7.89 -0.09,11.38 0.28,11.38 0.29,0 2.51,-1.86 4.93,-4.13 z m 49.23,-62.43 c -0.51,-2.01 -2.33,-8.59 -4.33,-15.69 -1.23,-4.4 -3.26,-11.71 -4.5,-16.25 -1.23,-4.54 -3.39,-12.3 -4.79,-17.25 -1.4,-4.95 -3.28,-11.81 -4.18,-15.25 -0.89,-3.44 -1.87,-6.25 -2.16,-6.25 -0.29,0 -1.86,1.69 -3.48,3.75 -4.97,6.32 -13.85,18.11 -15.62,20.75 -0.93,1.37 -3.56,5.01 -5.85,8.09 -2.29,3.07 -4.17,5.7 -4.17,5.84 0,0.15 4.33,3.2 9.62,6.79 5.3,3.59 13.12,8.93 17.38,11.87 16.26,11.23 21.27,14.54 21.75,14.42 0.27,-0.08 0.42,-0.44 0.33,-0.82 z M 455.6,355.38 c 1.5,-2 4.72,-6.56 7.16,-10.13 2.43,-3.57 6.69,-9.61 9.46,-13.4 2.77,-3.8 5.26,-7.25 5.53,-7.67 0.55,-0.83 0.25,-1.13 -8,-8.07 -2.48,-2.08 -7.01,-6 -10.07,-8.7 -3.06,-2.7 -5.78,-4.91 -6.04,-4.91 -0.29,0 -0.53,6.43 -0.61,16.38 -0.08,9 -0.28,21.62 -0.46,28.04 -0.28,10.29 -0.25,12.08 0.2,12.08 0.06,0 1.33,-1.63 2.83,-3.62 z M 476,304.93 c 0,-0.72 -3.32,-13.34 -4.23,-16.09 -0.84,-2.54 -3.09,-10.48 -5.26,-18.59 -0.88,-3.3 -2.47,-9.04 -3.53,-12.75 -1.05,-3.71 -2.39,-8.55 -2.97,-10.75 -2.47,-9.39 -3.92,-13.75 -4.57,-13.75 -0.24,0 -0.44,2.87 -0.44,6.38 0,3.5 -0.21,10.42 -0.47,15.37 -0.26,4.95 -0.61,14.19 -0.78,20.53 l -0.32,11.53 5.16,4.3 c 2.84,2.36 7.75,6.56 10.91,9.32 3.16,2.76 5.92,5.03 6.12,5.05 0.21,0.01 0.38,-0.23 0.38,-0.55 z M 324.91,195.58 c 4.04,-1.33 8.47,-2.77 9.84,-3.21 1.37,-0.44 4.19,-1.38 6.25,-2.09 5.8,-2.01 5.77,-2 23,-7.71 8.94,-2.97 18.73,-6.21 21.75,-7.22 16.39,-5.44 39.3,-13.24 39.51,-13.44 0.28,-0.28 -0.33,-3.46 -1.43,-7.41 -0.41,-1.51 -1.22,-4.49 -1.79,-6.62 -0.57,-2.14 -1.51,-5.62 -2.08,-7.76 -3.2,-11.89 -4.12,-15.54 -4.78,-19.02 -0.2,-1.01 -0.58,-1.59 -0.99,-1.5 -0.36,0.08 -3.09,2.07 -6.05,4.42 -4.96,3.93 -11.06,8.72 -21.39,16.8 -7.21,5.64 -26.41,20.79 -30.5,24.07 -2.2,1.76 -7.77,6.22 -12.37,9.91 -11.82,9.49 -27.1,22.22 -27.3,22.75 -0.28,0.77 0.76,0.52 8.33,-1.97 z M 443.77,155.8 c 2.74,-0.94 13.53,-4.63 23.98,-8.2 10.45,-3.57 19.45,-6.58 19.99,-6.68 1.24,-0.23 1.68,-1.92 0.51,-1.92 -0.45,0 -5.25,-1.59 -10.66,-3.54 -25.98,-9.34 -49.47,-17.25 -49.92,-16.8 -0.15,0.15 0.08,1.36 0.51,2.68 1.03,3.17 3.56,12.74 7.81,29.51 1.45,5.71 1.79,6.65 2.43,6.65 0.2,0 2.61,-0.77 5.35,-1.7 z"
     id="path1"
     sodipodi:nodetypes="cccsccsccccscccccccscccccccccccccssccccccccccccccscccccccccccccscccccccccscscccccccccsccccccscccssccsccccscssccccccccccscccscccccssccsccsscccscccccscsccccccscscsscccccccccsccscscccccccccccccccccscsccccsccccccccccccccccccsccccccccccscccsscsccccccccccccccccccscscccccccccccscscscccscccsscccccccccccccscscssscsccccsccscscccccccccssccccccccccccccccccccscccccccccsccscscscsssccccccccccccccccccscscccccccccccccccccccccscccccscscscccccccccccsccccccccccsccccccccsccccccccccccccccccsccccccccsscccccsccccscccccccccccccccccccsccsccsccccsccccccscccscccccccccccccccccscccccscscscccccccsccccccscccsccccssscccccccccsccsccscccscccccccscccccccccccccccccccccsccsccccccssccccscccccsssssccsscsccscccccccccccsscsccccccccsscccccccssscscscssscccscscssccssscscscccsccscccccsssccccccsccccccccsscccsccccccsccccscccsscccscccccscccscccccccsccccsscsccccccccccccccccccccccscccsccccscccccsccccccsscsccccccccccsccscccccccccsccccccccsccsccccccccccccccccccccscscccccscccccccccccccccccccsccscscsccsccssccccccccccsccccccccccscscscsccccccccsccccscccscsccscsccscsscccccscscsccccccccscccccsscsccscscscccccscssscscssscccscccccccccccssccscscscscccscsccssscscccssccsssccccccccccccsscscccscscccssscsccsccsscscccscscccccccsccccsscsccccsccccscccscccscsccccscccscccccccccssccscscssscccccscscssssccccscccccscsccccscsccccscssccscccccccccssccscsccccssscccscscsccccccccccccccccscscsccsc" />
</svg>
